<?xml version="1.0" encoding="UTF-8"?><svg id="a" xmlns="http://www.w3.org/2000/svg" viewBox="0 0 228.652 125.028"><defs><style>.b{fill:#af4e21;}.c{isolation:isolate;}.d{fill:none;stroke:#af4e21;stroke-linecap:square;stroke-width:2.5px;}</style></defs><g><path class="b" d="m7.379,35.215c2.5,0,5.09,1.85,6.43,4.61.91,1.86,1.16,3.88.72,5.69-.4,1.64-1.34,2.89-2.65,3.53-.62.3-1.3.46-2.02.46-2.5,0-5.09-1.85-6.43-4.61-.91-1.86-1.16-3.88-.72-5.69.4-1.64,1.34-2.89,2.65-3.53.62-.3,1.3-.46,2.02-.46m0-2.5c-1.07,0-2.13.23-3.12.71-4.1,2.01-5.48,7.63-3.08,12.57,1.83,3.75,5.31,6.02,8.68,6.02,1.07,0,2.13-.23,3.12-.71,4.11-2,5.49-7.63,3.08-12.56-1.83-3.75-5.31-6.02-8.68-6.02h0v-.01Zm21.05-4.79c2.12,0,4.08,2.07,4.55,4.81.26,1.55.03,3.06-.67,4.27-.61,1.06-1.51,1.74-2.53,1.91-.18.03-.36.05-.53.05-2.12,0-4.08-2.07-4.55-4.81-.26-1.55-.03-3.06.67-4.27.61-1.06,1.51-1.74,2.53-1.91.18-.03.36-.05.53-.05m0-2.5c-.32,0-.64.03-.95.08-3.65.62-6,4.69-5.25,9.07.68,4,3.72,6.89,7.01,6.89.32,0,.64-.03.95-.08,3.65-.62,6-4.69,5.25-9.07-.68-4-3.72-6.89-7.01-6.89h0Zm16.81,1.9c1.84,0,3.43,2.09,3.48,4.57.05,2.51-1.49,4.66-3.4,4.7-1.84,0-3.43-2.09-3.48-4.57-.05-2.51,1.49-4.66,3.35-4.7h.05m0-2.5h-.1c-3.28.06-5.88,3.31-5.8,7.24.07,3.9,2.74,7.02,5.98,7.02h.1c3.28-.06,5.88-3.31,5.8-7.24-.08-3.9-2.75-7.02-5.98-7.02h0Zm14.14,8.04h0c.07,0,.14,0,.21.01,1.27.17,2.14,1.84,1.9,3.63-.25,1.86-1.53,3.02-2.58,3.02-.07,0-.14,0-.21-.01-.73-.1-1.19-.67-1.4-1.01-.45-.71-.63-1.67-.5-2.63.25-1.86,1.53-3.02,2.58-3.02m0-2.5c-2.45,0-4.66,2.2-5.06,5.18-.43,3.2,1.38,6.09,4.04,6.45.18.02.37.04.55.04,2.45,0,4.66-2.2,5.06-5.18.43-3.2-1.38-6.09-4.04-6.45-.18-.02-.37-.04-.55-.04h0Zm9.62,14h.1c.65.09,1.24,1.1,1.08,2.32-.16,1.17-.93,1.96-1.55,1.96h-.1c-.65-.09-1.24-1.1-1.08-2.32.16-1.17.93-1.96,1.55-1.96m0-2.5c-1.95,0-3.71,1.75-4.03,4.13-.34,2.55,1.1,4.85,3.22,5.14.15.02.29.03.44.03,1.95,0,3.71-1.75,4.03-4.13.34-2.55-1.1-4.85-3.22-5.14-.15-.02-.29-.03-.44-.03h0Z"/><path class="d" d="m12.479,83.455c3.65,12.31,15.04,21.28,28.53,21.28,16.43,0,29.75-13.32,29.75-29.75s-13.32-29.75-29.75-29.75c-11.16,0-20.85,6.16-25.97,15.24-.89,1.58-4.46,7.26,1.86,12.62,7.06,5.99,24.89-2.67,29.33,7.41,4.44,10.07-16.59,30.81-9.19,39.11,7.4,8.3,18.67-.59,22.52-10.07"/></g><g class="c"><g class="c"><path class="b" d="m85.01,65.04v25.1c0,7.298,2.314,13.528,13.618,13.528s13.618-6.23,13.618-13.528v-25.1c0-.712.623-1.335,1.335-1.335s1.335.623,1.335,1.335v25.1c0,8.277-2.848,15.843-16.288,15.843s-16.288-7.565-16.288-15.843v-25.1c0-.712.623-1.335,1.335-1.335s1.335.623,1.335,1.335Z"/><path class="b" d="m143.928,63.171c14.774,0,16.732,11.037,16.732,17,0,.979,0,2.226-.178,3.293-.179.979-.802,1.424-1.958,1.424h-29.994c0,12.817,5.963,18.78,16.377,18.78,6.675,0,9.968-2.313,12.549-4.45.268-.178.445-.267.713-.267.623,0,1.156.534,1.156,1.157,0,.444-.268.712-.533.979-1.425,1.335-5.697,4.896-13.885,4.896-11.838,0-19.137-6.408-19.137-21.45,0-13.796,6.765-21.361,18.157-21.361Zm0,2.314c-10.058,0-15.042,6.586-15.397,17.178h29.46s.089-1.78.089-2.492c0-7.12-2.759-14.686-14.151-14.686Z"/><path class="b" d="m172.673,73.14c0,11.838,25.455,7.743,25.455,21.806,0,7.565-6.408,11.037-14.686,11.037-7.477,0-12.995-3.204-15.131-6.142-.268-.355-.356-.534-.356-.89,0-.712.623-1.157,1.157-1.157.268,0,.534.089.801.355,3.026,3.383,6.854,5.519,13.529,5.519,6.497,0,12.016-2.313,12.016-8.723,0-11.481-25.455-7.743-25.455-21.806,0-6.854,5.785-9.969,13.083-9.969,6.052,0,10.325,2.047,13.262,5.341.267.355.356.533.356.89,0,.623-.535,1.157-1.157,1.157-.179,0-.445,0-.802-.356-3.115-3.115-6.497-4.717-11.659-4.717-5.251,0-10.413,1.869-10.413,7.654Z"/><path class="b" d="m211.565,53.559c0-.712.623-1.335,1.335-1.335s1.335.623,1.335,1.335v10.858h8.011c.623,0,1.156.534,1.156,1.157s-.533,1.157-1.156,1.157h-8.011v28.304c0,5.34,3.026,8.188,7.388,8.188.623,0,1.156.534,1.156,1.157s-.533,1.157-1.156,1.157c-6.498,0-10.058-4.45-10.058-10.502v-28.304h-5.519c-.623,0-1.156-.534-1.156-1.157s.533-1.157,1.156-1.157h5.519v-10.858Z"/></g></g><g class="c"><g class="c"><path class="b" d="m84.1,41.025c0,.45-.35.8-.8.8s-.8-.35-.8-.8V8.974c0-.45.35-.801.8-.801h16.951c.4,0,.7.301.7.7s-.3.7-.7.7h-16.151v15.101h12.601c.4,0,.7.301.7.7s-.3.7-.7.7h-12.601v14.951Z"/><path class="b" d="m107.6,19.474v4.9c1.05-3.35,3.85-5.9,8.55-5.9.351,0,.65.3.65.65s-.3.649-.65.649c-5.75,0-8.55,4.45-8.55,9.901v11.801c0,.399-.35.75-.75.75s-.75-.351-.75-.75v-22.002c0-.399.35-.75.75-.75s.75.351.75.75Z"/><path class="b" d="m122.449,11.173c0-.75.3-1.05.9-1.05s.899.3.899,1.05-.3,1.051-.899,1.051-.9-.3-.9-1.051Zm1.65,8.301v22.002c0,.399-.351.75-.75.75s-.751-.351-.751-.75v-22.002c0-.399.351-.75.751-.75s.75.351.75.75Z"/><path class="b" d="m141.3,18.424c8.301,0,9.4,6.2,9.4,9.551,0,.55,0,1.25-.1,1.85-.101.55-.451.8-1.101.8h-16.851c0,7.201,3.35,10.551,9.2,10.551,3.75,0,5.601-1.3,7.05-2.5.15-.1.25-.149.4-.149.35,0,.65.3.65.649,0,.25-.15.4-.301.55-.8.751-3.199,2.751-7.8,2.751-6.65,0-10.751-3.601-10.751-12.051,0-7.751,3.801-12.001,10.201-12.001Zm0,1.3c-5.65,0-8.451,3.7-8.65,9.65h16.551s.05-1,.05-1.399c0-4.001-1.55-8.251-7.95-8.251Z"/><path class="b" d="m157.398,41.476v-22.002c0-.399.351-.75.751-.75s.75.351.75.75v3.75c.75-2,3.149-4.8,7.851-4.8,7.2,0,8.95,4.25,8.95,8.851v14.201c0,.399-.351.75-.75.75s-.75-.351-.75-.75v-14.201c0-4.051-1.399-7.551-7.501-7.551-5.449,0-7.8,4.15-7.8,8.051v13.701c0,.399-.351.75-.75.75s-.751-.351-.751-.75Z"/><path class="b" d="m200.548,23.174V6.973c0-.399.351-.75.75-.75s.751.351.751.75v25.802c0,6.501-4.05,9.701-9.651,9.701-6.4,0-10.25-3.851-10.25-12.051s3.85-12.001,10.25-12.001c6.15,0,8.15,4.75,8.15,4.75Zm-8.15-3.45c-5.65,0-8.65,3.301-8.65,10.701,0,7.5,3,10.75,8.65,10.75,4.701,0,8.15-2.55,8.15-8.4v-7.2s-1.949-5.851-8.15-5.851Z"/><path class="b" d="m210.747,24.024c0,6.65,14.301,4.35,14.301,12.25,0,4.251-3.6,6.201-8.25,6.201-4.2,0-7.301-1.801-8.5-3.45-.15-.2-.2-.301-.2-.5,0-.4.35-.65.649-.65.15,0,.301.05.45.2,1.7,1.899,3.851,3.1,7.601,3.1,3.65,0,6.75-1.3,6.75-4.9,0-6.45-14.301-4.35-14.301-12.25,0-3.851,3.25-5.601,7.352-5.601,3.399,0,5.8,1.15,7.449,3,.15.2.201.3.201.5,0,.351-.301.65-.65.65-.1,0-.25,0-.45-.2-1.75-1.75-3.65-2.65-6.55-2.65-2.951,0-5.852,1.05-5.852,4.301Z"/></g></g></svg>