<svg xmlns="http://www.w3.org/2000/svg" width="73" height="100" viewBox="0 0 73 100">
    <g fill="none" fill-rule="evenodd">
        <path fill="#AF4E21" fill-rule="nonzero"
              d="M7.38 10.39C9.88 10.39 12.47 12.24 13.81 15 14.72 16.86 14.97 18.88 14.53 20.69 14.13 22.33 13.19 23.58 11.88 24.22 11.26 24.52 10.58 24.68 9.86 24.68 7.36 24.68 4.77 22.83 3.43 20.07 2.52 18.21 2.27 16.19 2.71 14.38 3.11 12.74 4.05 11.49 5.36 10.85 5.98 10.55 6.66 10.39 7.38 10.39M7.38 7.89C6.31 7.89 5.25 8.12 4.26 8.6.16 10.61-1.22 16.23 1.18 21.17 3.01 24.92 6.49 27.19 9.86 27.19 10.93 27.19 11.99 26.96 12.98 26.48 17.09 24.48 18.47 18.85 16.06 13.92 14.23 10.17 10.75 7.9 7.38 7.9L7.38 7.9 7.38 7.89ZM28.43 3.1C30.55 3.1 32.51 5.17 32.98 7.91 33.24 9.46 33.01 10.97 32.31 12.18 31.7 13.24 30.8 13.92 29.78 14.09 29.6 14.12 29.42 14.14 29.25 14.14 27.13 14.14 25.17 12.07 24.7 9.33 24.44 7.78 24.67 6.27 25.37 5.06 25.98 4 26.88 3.32 27.9 3.15 28.08 3.12 28.26 3.1 28.43 3.1M28.43.6C28.11.6 27.79.63 27.48.68 23.83 1.3 21.48 5.37 22.23 9.75 22.91 13.75 25.95 16.64 29.24 16.64 29.56 16.64 29.88 16.61 30.19 16.56 33.84 15.94 36.19 11.87 35.44 7.49 34.76 3.49 31.72.6 28.43.6L28.43.6 28.43.6ZM45.24 2.5C47.08 2.5 48.67 4.59 48.72 7.07 48.77 9.58 47.23 11.73 45.32 11.77 43.48 11.77 41.89 9.68 41.84 7.2 41.79 4.69 43.33 2.54 45.19 2.5L45.24 2.5M45.24-8.8817842e-16C45.24-8.8817842e-16 45.18-8.8817842e-16 45.14-8.8817842e-16 41.86.06 39.26 3.31 39.34 7.24 39.41 11.14 42.08 14.26 45.32 14.26 45.35 14.26 45.38 14.26 45.42 14.26 48.7 14.2 51.3 10.95 51.22 7.02 51.14 3.12 48.47-8.8817842e-16 45.24-8.8817842e-16L45.24-8.8817842e-16ZM59.38 8.04 59.38 8.04C59.45 8.04 59.52 8.04 59.59 8.05 60.86 8.22 61.73 9.89 61.49 11.68 61.24 13.54 59.96 14.7 58.91 14.7 58.84 14.7 58.77 14.7 58.7 14.69 57.97 14.59 57.51 14.02 57.3 13.68 56.85 12.97 56.67 12.01 56.8 11.05 57.05 9.19 58.33 8.03 59.38 8.03M59.38 5.53C56.93 5.53 54.72 7.73 54.32 10.71 53.89 13.91 55.7 16.8 58.36 17.16 58.54 17.18 58.73 17.2 58.91 17.2 61.36 17.2 63.57 15 63.97 12.02 64.4 8.82 62.59 5.93 59.93 5.57 59.75 5.55 59.56 5.53 59.38 5.53L59.38 5.53ZM69 19.53C69 19.53 69.07 19.53 69.1 19.53 69.75 19.62 70.34 20.63 70.18 21.85 70.02 23.02 69.25 23.81 68.63 23.81 68.6 23.81 68.56 23.81 68.53 23.81 67.88 23.72 67.29 22.71 67.45 21.49 67.61 20.32 68.38 19.53 69 19.53M69 17.03C67.05 17.03 65.29 18.78 64.97 21.16 64.63 23.71 66.07 26.01 68.19 26.3 68.34 26.32 68.48 26.33 68.63 26.33 70.58 26.33 72.34 24.58 72.66 22.2 73 19.65 71.56 17.35 69.44 17.06 69.29 17.04 69.15 17.03 69 17.03L69 17.03Z"/>
        <path stroke="#AF4E21" stroke-linecap="square" stroke-width="2.5"
              d="M12.48,58.63 C16.13,70.94 27.52,79.91 41.01,79.91 C57.44,79.91 70.76,66.59 70.76,50.16 C70.76,33.73 57.44,20.41 41.01,20.41 C29.85,20.41 20.16,26.57 15.04,35.65 C14.15,37.23 10.58,42.91 16.9,48.27 C23.96,54.26 41.79,45.6 46.23,55.68 C50.67,65.75 29.64,86.49 37.04,94.79 C44.44,103.09 55.71,94.2 59.56,84.72"/>
    </g>
</svg>
